<svg width="1920" height="1056" viewBox="0 0 1920 1056" fill="none" xmlns="http://www.w3.org/2000/svg">
<path fill-rule="evenodd" clip-rule="evenodd" d="M-9 485.154L45.9231 508.692C100.846 530.923 210.692 578 321.846 530.923C431.692 485.154 541.538 346.538 651.385 323C761.231 300.769 872.385 392.308 982.231 461.615C1092.08 530.923 1201.92 578 1311.77 530.923C1421.62 485.154 1532.77 346.538 1642.62 312.538C1752.46 277.231 1862.31 346.538 1972.15 312.538C2083.31 277.231 2193.15 138.615 2248.08 69.3077L2303 0V693.077H2248.08C2193.15 693.077 2083.31 693.077 1972.15 693.077C1862.31 693.077 1752.46 693.077 1642.62 693.077C1532.77 693.077 1421.62 693.077 1311.77 693.077C1201.92 693.077 1092.08 693.077 982.231 693.077C872.385 693.077 761.231 693.077 651.385 693.077C541.538 693.077 431.692 693.077 321.846 693.077C210.692 693.077 100.846 693.077 45.9231 693.077H-9V485.154Z" fill="#E6F4FD"/>
<path fill-rule="evenodd" clip-rule="evenodd" d="M1919 872.923L1864.08 849.385C1809.15 827.154 1699.31 780.077 1588.15 827.154C1478.31 872.923 1368.46 1011.54 1258.62 1035.08C1148.77 1057.31 1037.62 965.769 927.769 896.462C817.923 827.154 708.077 780.077 598.231 827.154C488.385 872.923 377.231 1011.54 267.385 1045.54C157.538 1080.85 47.6924 1011.54 -62.1538 1045.54C-173.308 1080.85 -244.077 857.692 -299 927L-383 951L-393 665H-338.077C-283.154 665 -173.308 665 -62.1538 665C47.6924 665 157.538 665 267.385 665C377.231 665 488.385 665 598.231 665C708.077 665 817.923 665 927.769 665C1037.62 665 1148.77 665 1258.62 665C1368.46 665 1478.31 665 1588.15 665C1699.31 665 1809.15 665 1864.08 665H1919V872.923Z" fill="#E6F4FD"/>
</svg>
